# xmcd
#
# Track frame offsets:
#	150
#	8420
#	28903
#	43853
#	65290
#	82118
#	101925
#	123450
#	144127
#	166173
#	188041
#	208542
#
# Disc length: 3041 seconds
#
# Revision: 1
# Processed by: cddbd v1.5.2PL0 Copyright (c) Steve Scherf et al.
# Submitted via: audiograbber 1.83.01
#
DISCID=9d0bdf0c
DTITLE=Foeticide - The Early Years of Rage
DYEAR=2008
DGENRE=Death Metal
TTITLE0=Spermatic Introduction
TTITLE1=Necropediatric Infection
TTITLE2=Miscarried by Purulent Infestation
TTITLE3=Putrefact Corpse
TTITLE4=Foeticide
TTITLE5=Death Is Creation
TTITLE6=Reflections About Life and Death
TTITLE7=In My Black Sky
TTITLE8=The Lament of My Soul
TTITLE9=Deadly Epidemic
TTITLE10=Destruction of the Human Race
TTITLE11=Nuclear Death
EXTD=
EXTT0=
EXTT1=
EXTT2=
EXTT3=
EXTT4=
EXTT5=
EXTT6=
EXTT7=
EXTT8=
EXTT9=
EXTT10=
EXTT11=
PLAYORDER=
